<svg xmlns="http://www.w3.org/2000/svg" >
  <symbol id="icon-logout" viewBox="0 0 24 24">
    <path class="icon-logout__line" d="M15 3H7C5.89543 3 5 3.89543 5 5V19C5 20.1046 5.89543 21 7 21H15"></path>
    <path class="icon-logout__line" d="M19 12L15 8M19 12L15 16M19 12H9"></path>
  </symbol>
    <symbol viewBox="0 0 50 50" id="icon-create__img">
    <path d="M25 49V25M25 25V1M25 25H49M25 25H1" stroke="#111111" stroke-opacity="0.6" stroke-width="2" stroke-linecap="round"/>
  </symbol>
  <symbol id="icon-cancel-circle" viewBox="0 0 32 32">
<path d="M16 0c-8.837 0-16 7.163-16 16s7.163 16 16 16 16-7.163 16-16-7.163-16-16-16zM16 29c-7.18 0-13-5.82-13-13s5.82-13 13-13 13 5.82 13 13-5.82 13-13 13z"></path>
<path d="M21 8l-5 5-5-5-3 3 5 5-5 5 3 3 5-5 5 5 3-3-5-5 5-5z"></path>
</symbol>
<symbol id="icon-camera" viewBox="0 0 32 32">
<path d="M9.5 19c0 3.59 2.91 6.5 6.5 6.5s6.5-2.91 6.5-6.5-2.91-6.5-6.5-6.5-6.5 2.91-6.5 6.5zM30 8h-7c-0.5-2-1-4-3-4h-8c-2 0-2.5 2-3 4h-7c-1.1 0-2 0.9-2 2v18c0 1.1 0.9 2 2 2h28c1.1 0 2-0.9 2-2v-18c0-1.1-0.9-2-2-2zM16 27.875c-4.902 0-8.875-3.973-8.875-8.875s3.973-8.875 8.875-8.875c4.902 0 8.875 3.973 8.875 8.875s-3.973 8.875-8.875 8.875zM30 14h-4v-2h4v2z"></path>
</symbol>
<symbol id="icon-user" viewBox="0 0 32 32">
<path d="M18 22.082v-1.649c2.203-1.241 4-4.337 4-7.432 0-4.971 0-9-6-9s-6 4.029-6 9c0 3.096 1.797 6.191 4 7.432v1.649c-6.784 0.555-12 3.888-12 7.918h28c0-4.030-5.216-7.364-12-7.918z"></path>
</symbol>
<symbol id="icon-edit" viewBox="0 0 1920 1920">
    <path d="M277.974 49.076c65.267-65.379 171.733-65.49 237.448 0l232.186 232.187 1055.697 1055.809L1919.958 1920l-582.928-116.653-950.128-950.015 79.15-79.15 801.792 801.68 307.977-307.976-907.362-907.474L281.22 747.65 49.034 515.464c-65.379-65.603-65.379-172.069 0-237.448Zm1376.996 1297.96-307.977 307.976 45.117 45.116 384.999 77.023-77.023-385-45.116-45.116ZM675.355 596.258l692.304 692.304-79.149 79.15-692.304-692.305 79.149-79.15ZM396.642 111.88c-14.33 0-28.547 5.374-39.519 16.345l-228.94 228.94c-21.718 21.718-21.718 57.318 0 79.149l153.038 153.037 308.089-308.09-153.037-153.036c-10.972-10.971-25.301-16.345-39.63-16.345Z" fill-rule="evenodd"/>
</symbol>
<symbol id="icon-confirm" viewBox="0 0 32 32">
    <path d="M30,1H2C1.448,1,1,1.448,1,2v28c0,0.552,0.448,1,1,1h28c0.552,0,1-0.448,1-1V2C31,1.448,30.552,1,30,1z M29,29H3V3h26V29z"/>
    <path d="M12.629,21.73c0.192,0.18,0.438,0.27,0.683,0.27s0.491-0.09,0.683-0.27l10.688-10c0.403-0.377,0.424-1.01,0.047-1.413c-0.377-0.404-1.01-0.425-1.413-0.047l-10.004,9.36l-4.629-4.332c-0.402-0.377-1.035-0.356-1.413,0.047c-0.377,0.403-0.356,1.036,0.047,1.413L12.629,21.73z"/>
</symbol>
   <symbol id="icon-star" viewBox="0 0 24 24">
      <path d="M14.65 8.93274L12.4852 4.30901C12.2923 3.89699 11.7077 3.897 11.5148 4.30902L9.35002 8.93274L4.45559 9.68243C4.02435 9.74848 3.84827 10.2758 4.15292 10.5888L7.71225 14.2461L6.87774 19.3749C6.80571 19.8176 7.27445 20.1487 7.66601 19.9317L12 17.5299L16.334 19.9317C16.7256 20.1487 17.1943 19.8176 17.1223 19.3749L16.2878 14.2461L19.8471 10.5888C20.1517 10.2758 19.9756 9.74848 19.5444 9.68243L14.65 8.93274Z" />
    </symbol>

  <!-- Додайте інші іконки спрайту тут -->
</svg>