<svg aria-hidden="true" style="position: absolute; width: 0; height: 0; overflow: hidden;" version="1.1" xmlns="http://www.w3.org/2000/svg" xmlns:xlink="http://www.w3.org/1999/xlink">
<defs>
<symbol id="icon-colapse-top" viewBox="0 0 32 32">
<path fill="#2196f3" style="fill: var(--color1, #2196f3)" d="M3.333 20.6l2.067 2.067 10.6-10.6 10.6 10.6 2.067-2.067-12.667-12.6z"></path>
</symbol>
<symbol id="icon-colapse-bottom" viewBox="0 0 32 32">
<path fill="#2196f3" style="fill: var(--color1, #2196f3)" d="M3.333 20.6l2.067 2.067 10.6-10.6 10.6 10.6 2.067-2.067-12.667-12.6z"></path>
</symbol>
<symbol id="icon-send" viewBox="0 0 20 20">
<path d="M0 0l20 10-20 10v-20zM0 8v4l10-2-10-2z"></path>
</symbol>
<symbol id="icon-circle-down" viewBox="0 0 32 32">
<path d="M32 16c0-8.837-7.163-16-16-16s-16 7.163-16 16 7.163 16 16 16 16-7.163 16-16zM3 16c0-7.18 5.82-13 13-13s13 5.82 13 13-5.82 13-13 13-13-5.82-13-13z"></path>
<path d="M9.914 11.086l-2.829 2.829 8.914 8.914 8.914-8.914-2.828-2.828-6.086 6.086z"></path>
</symbol>
</defs>
</svg>
